<svg viewBox="0 0 73 73" xmlns="http://www.w3.org/2000/svg" fill-rule="evenodd" clip-rule="evenodd" stroke-linecap="round" stroke-linejoin="round" stroke-miterlimit="1.414"><path d="M44.534 70.796a35.595 35.595 0 0 1-13.082.529l.218-.035s6.883-9.534 6.849-11.544c-.033-2.01 3.357 2.655 4.543 2.632 1.187-.022-.364 4.83.119 5.762.484.932.822 2.352.726 2.529-.017.032.222.077.627.127zm-22.439-2.204C9.813 63.056 1.256 50.703 1.256 36.367c0-19.499 15.83-35.329 35.329-35.329 19.498 0 35.328 15.83 35.328 35.329 0 14.085-8.261 26.257-20.198 31.929-.043-2.378-.07-5.352.255-5.925.557-.982-2.825-5.319-2.873-5.611-.048-.291-2.279-4.966-2.362-5.287-.083-.321-3.105-5.006-3.105-5.433 0-.427-.845-4.395 1.124-6.457 1.968-2.062 1.128 1.517 3.38-.207s6.221 3.044 6.619 3.177c.398.134 4.477 2.292 4.477 2.292s.278 1.756.822 1.95c.545.194 2.702-.354 3.145-.702.442-.348 1.099-1.894.836-2.568-.263-.674-1.412-2.29-1.798-2.64-.385-.35-11.543-8.918-11.85-10.266-.306-1.348-1.086-2.395-.99-3.214.096-.819-.468-3.728-.74-3.924-.271-.196.947-1.552.997-2.094.05-.541-.432-2.531.127-3.304.559-.774 1.603-3.104 1.276-3.795-.327-.69-3.706-7.546-6.602-7.083-2.897.463-7.377 8.027-7.2 8.349.178.321-.996 1.276-1.305 1.357-.309.081-2.052-.387-2.912.055-.861.441-5.645 4.506-6.198 5.692-.552 1.187-1.898 4.652-2.724 5.563-.826.911-3.438 2.509-3.995 3.543-.556 1.034-.493 3.025-1.244 4.45-.751 1.424-3.14 5.879-3.749 6.455-.609.575-1.989 1.828-2.428 1.924-.438.096-2.447-1.783-3.192-.473-.744 1.31-.957 1.262-1.005 1.31-.048.048-.231.559-.231.559s-.469 1.182-.273 1.426c.169.21.086.802.059.962l-.007.041s-.063-.296.131.34c.194.637 1.141 1.733 2.574 2.3 1.432.567 2.106.688 3.463.157 1.358-.532 1.851-1.585 2.575-1.702.724-.117 2.528-1.413 2.809-1.849.282-.436 1.139-3.221 1.731-3.947.592-.726 1.931-1.585 2.231-1.887.301-.302.052-.842.665-1.739.613-.896 1.604-1.945 1.604-1.945s-3.192 8.402-2.767 8.744c.426.342 1.508 2.234 2.277 3.057.769.823 3.042 3.372 3.092 4.12.051.749.176 4.446-1.086 6.652-1.261 2.206-1.524 3.143-3.014 5.268-.676.962-1.476 1.842-2.239 2.605zM8.18 48.758c-.194-.636-.131-.34-.131-.34l.007-.041.124.381z" fill="#2980b9" stroke-width="1.5" stroke="#1e2a36"/></svg>